<svg width="24" height="25" viewBox="0 0 24 25" xmlns="http://www.w3.org/2000/svg">
<path d="M7.76599 14.7424H7.76695C7.76775 14.7424 7.76855 14.7422 7.76935 14.7422H18.9239C19.1985 14.7422 19.4399 14.5571 19.5154 14.2889L21.9763 5.5389C22.0294 5.35026 21.9922 5.14746 21.876 4.99089C21.7597 4.83431 21.5779 4.74219 21.3848 4.74219H6.3471L5.9073 2.73161C5.84466 2.44564 5.59504 2.24219 5.30665 2.24219H1.61524C1.27541 2.24219 1 2.52197 1 2.86719C1 3.2124 1.27541 3.49219 1.61524 3.49219H4.81318C4.89104 3.84847 6.9178 13.1138 7.03443 13.6468C6.38059 13.9355 5.92188 14.5978 5.92188 15.3672C5.92188 16.401 6.74989 17.2422 7.76759 17.2422H18.9239C19.2637 17.2422 19.5391 16.9624 19.5391 16.6172C19.5391 16.272 19.2637 15.9922 18.9239 15.9922H7.76759C7.42841 15.9922 7.15235 15.7118 7.15235 15.3672C7.15235 15.0231 7.42745 14.7432 7.76599 14.7424ZM20.5691 5.99219L18.4597 13.4922H8.26106L6.62043 5.99219H20.5691Z" />
<path d="M7 19.2422C7 20.345 7.89722 21.2422 9 21.2422C10.1028 21.2422 11 20.345 11 19.2422C11 18.1394 10.1028 17.2422 9 17.2422C7.89722 17.2422 7 18.1394 7 19.2422ZM9 18.5755C9.36753 18.5755 9.66667 18.8747 9.66667 19.2422C9.66667 19.6097 9.36753 19.9089 9 19.9089C8.63247 19.9089 8.33333 19.6097 8.33333 19.2422C8.33333 18.8747 8.63247 18.5755 9 18.5755Z" />
<path d="M16 19.2422C16 20.345 16.8972 21.2422 18 21.2422C19.1028 21.2422 20 20.345 20 19.2422C20 18.1394 19.1028 17.2422 18 17.2422C16.8972 17.2422 16 18.1394 16 19.2422ZM18 18.5755C18.3675 18.5755 18.6667 18.8747 18.6667 19.2422C18.6667 19.6097 18.3675 19.9089 18 19.9089C17.6325 19.9089 17.3333 19.6097 17.3333 19.2422C17.3333 18.8747 17.6325 18.5755 18 18.5755Z" />
</svg>
