<svg width="8" height="8" viewBox="0 0 8 8" fill="none" xmlns="http://www.w3.org/2000/svg">
<g clip-path="url(#clip0)">
<path d="M4.21953 6.06924L7.90953 2.36901C8.03036 2.24778 8.03016 2.0515 7.90891 1.93046C7.78767 1.80953 7.59128 1.80984 7.47036 1.93109L3.99998 5.41107L0.529622 1.93096C0.408684 1.80973 0.212419 1.80942 0.0911694 1.93034C0.0303883 1.99101 -2.87111e-06 2.07049 -2.87458e-06 2.14998C-2.87804e-06 2.22926 0.0301847 2.30843 0.0905437 2.36899L3.78045 6.06924C3.83855 6.12763 3.91761 6.16039 3.99998 6.16039C4.08236 6.16039 4.16133 6.12754 4.21953 6.06924Z" fill="#2A364E"/>
</g>
<defs>
<clipPath id="clip0">
<rect width="8" height="8" fill="white" transform="translate(8) rotate(90)"/>
</clipPath>
</defs>
</svg>
