<svg width="19" height="18" viewBox="0 0 19 18" xmlns="http://www.w3.org/2000/svg">
<path d="M17.4462 1.90188C16.4635 0.84556 15.0864 0.244526 13.6436 0.242298C12.1996 0.243969 10.8211 0.844685 9.83685 1.90121L9.5014 2.25568L9.16595 1.90121C7.21288 -0.200818 3.92554 -0.321534 1.82355 1.63153C1.73041 1.71811 1.64045 1.80803 1.55387 1.90121C-0.517957 4.13593 -0.517957 7.58958 1.55387 9.8243L9.00842 17.6856C9.26633 17.9579 9.69612 17.9695 9.96838 17.7116C9.9773 17.7032 9.98597 17.6945 9.9944 17.6856L17.4463 9.8243C19.5179 7.58982 19.5179 4.13636 17.4462 1.90188ZM16.4637 8.88925H16.463L9.5014 16.2318L2.53918 8.88925C0.956418 7.18172 0.956418 4.54312 2.53918 2.83558C3.97651 1.27773 6.40463 1.18006 7.96248 2.61739C8.03812 2.68718 8.11089 2.75995 8.18068 2.83558L9.00842 3.70885C9.28121 3.97988 9.72162 3.97988 9.9944 3.70885L10.8222 2.83626C12.2595 1.27841 14.6876 1.18073 16.2455 2.61806C16.3211 2.68785 16.3939 2.76062 16.4637 2.83626C18.0602 4.5465 18.0719 7.18992 16.4637 8.88925Z" />
</svg>
