<svg width="15" height="15" viewBox="0 0 15 15" xmlns="http://www.w3.org/2000/svg">
<path d="M7.64792 15C7.59825 15 7.54858 15 7.49857 14.9998C6.32276 15.0026 5.23633 14.9728 4.17977 14.9084C3.21111 14.8495 2.3269 14.5148 1.62261 13.9405C0.943029 13.3864 0.478954 12.6371 0.243311 11.7138C0.0382248 10.91 0.0273524 10.1209 0.0169379 9.3577C0.0093845 8.8101 0.00160223 8.16122 0 7.50135C0.00160223 6.83874 0.0093845 6.18986 0.0169379 5.64225C0.0273524 4.87916 0.0382248 4.09009 0.243311 3.28614C0.478954 2.36283 0.943029 1.61358 1.62261 1.05945C2.3269 0.485189 3.21111 0.150448 4.17988 0.0915109C5.23644 0.0273094 6.3231 -0.00267423 7.50143 0.000186801C8.67758 -0.00233091 9.76367 0.0273094 10.8202 0.0915109C11.7889 0.150448 12.6731 0.485189 13.3774 1.05945C14.0571 1.61358 14.521 2.36283 14.7567 3.28614C14.9618 4.08997 14.9726 4.87916 14.9831 5.64225C14.9906 6.18986 14.9985 6.83874 15 7.49861V7.50135C14.9985 8.16122 14.9906 8.8101 14.9831 9.3577C14.9726 10.1208 14.9619 10.9099 14.7567 11.7138C14.521 12.6371 14.0571 13.3864 13.3774 13.9405C12.6731 14.5148 11.7889 14.8495 10.8202 14.9084C9.80842 14.97 8.76903 15 7.64792 15ZM7.49857 13.8279C8.65527 13.8306 9.71732 13.8015 10.749 13.7387C11.4815 13.6942 12.1166 13.4565 12.6368 13.0323C13.1177 12.6401 13.4489 12.099 13.6212 11.4241C13.7919 10.7549 13.8018 10.0365 13.8113 9.34168C13.8187 8.79774 13.8265 8.15344 13.8281 7.49998C13.8265 6.84641 13.8187 6.20222 13.8113 5.65828C13.8018 4.9635 13.7919 4.24504 13.6212 3.57579C13.4489 2.90081 13.1177 2.35974 12.6368 1.96755C12.1166 1.54343 11.4815 1.30573 10.749 1.26121C9.71732 1.19839 8.65527 1.16943 7.50132 1.17195C6.34485 1.1692 5.28268 1.19839 4.25096 1.26121C3.51851 1.30573 2.88345 1.54343 2.36318 1.96755C1.88228 2.35974 1.55108 2.90081 1.37884 3.57579C1.20808 4.24504 1.19824 4.96339 1.18874 5.65828C1.1813 6.20267 1.17352 6.84732 1.17192 7.50135C1.17352 8.15252 1.1813 8.79729 1.18874 9.34168C1.19824 10.0365 1.20808 10.7549 1.37884 11.4241C1.55108 12.099 1.88228 12.6401 2.36318 13.0323C2.88345 13.4564 3.51851 13.6941 4.25096 13.7386C5.28268 13.8015 6.34508 13.8308 7.49857 13.8279ZM7.47064 11.1621C5.45137 11.1621 3.8084 9.51929 3.8084 7.49998C3.8084 5.48066 5.45137 3.83786 7.47064 3.83786C9.49003 3.83786 11.1329 5.48066 11.1329 7.49998C11.1329 9.51929 9.49003 11.1621 7.47064 11.1621ZM7.47064 5.00974C6.09753 5.00974 4.98032 6.12691 4.98032 7.49998C4.98032 8.87304 6.09753 9.99022 7.47064 9.99022C8.84387 9.99022 9.96097 8.87304 9.96097 7.49998C9.96097 6.12691 8.84387 5.00974 7.47064 5.00974ZM11.5431 2.66598C11.0577 2.66598 10.6641 3.05943 10.6641 3.54489C10.6641 4.03035 11.0577 4.4238 11.5431 4.4238C12.0285 4.4238 12.422 4.03035 12.422 3.54489C12.422 3.05943 12.0285 2.66598 11.5431 2.66598Z" />
</svg>
