<svg width="62" height="14" viewBox="0 0 62 14" xmlns="http://www.w3.org/2000/svg">
<path d="M6.375 6.475C6.125 6.35833 5.81667 6.3 5.45 6.3C5.05 6.3 4.68333 6.375 4.35 6.525C3.88333 6.74167 3.51667 7.05833 3.25 7.475C3 7.89167 2.875 8.33333 2.875 8.8C2.875 9.48333 3.14167 10.0917 3.675 10.625C3.85833 10.8083 4.125 10.9833 4.475 11.15C4.825 11.3 5.11667 11.375 5.35 11.375C5.96667 11.375 6.54167 11.125 7.075 10.625C7.625 10.1083 7.9 9.49167 7.9 8.775C7.9 8.29167 7.76667 7.84167 7.5 7.425C7.23333 7.00833 6.85833 6.69167 6.375 6.475ZM4.675 4.375C4.94167 4.34167 5.15833 4.325 5.325 4.325C6.09167 4.325 6.79167 4.48333 7.425 4.8C7.75833 4.98333 7.94167 5.075 7.975 5.075C8.00833 5.075 8.025 4.94167 8.025 4.675V4.3H9.925V13.275H8.025V12.5L7.475 12.775C6.80833 13.1083 6.10833 13.275 5.375 13.275C4.55833 13.275 3.84167 13.1 3.225 12.75C2.50833 12.35 1.94167 11.8 1.525 11.1C1.10833 10.3833 0.9 9.625 0.9 8.825C0.9 8.50833 0.916667 8.275 0.95 8.125C1.11667 7.15833 1.54167 6.33333 2.225 5.65C2.90833 4.96667 3.725 4.54167 4.675 4.375ZM12.0922 13.175V4.2H14.0922V4.825C14.0922 5.24167 14.1339 5.45 14.2172 5.45C14.2505 5.45 14.2922 5.41667 14.3422 5.35C14.4089 5.25 14.6755 5.1 15.1422 4.9C15.6089 4.68333 16.0005 4.53333 16.3172 4.45C16.6505 4.36667 17.0755 4.325 17.5922 4.325C18.1255 4.325 18.5339 4.36667 18.8172 4.45C19.5839 4.63333 20.2839 4.975 20.9172 5.475C21.5505 5.975 22.0255 6.55 22.3422 7.2C22.6255 7.76667 22.8005 8.26667 22.8672 8.7C22.9339 9.13333 22.9672 9.93333 22.9672 11.1V13.175H21.0672V11.425C21.0672 10.425 21.0339 9.71667 20.9672 9.3C20.9172 8.88333 20.8005 8.49167 20.6172 8.125C20.3339 7.575 19.9005 7.125 19.3172 6.775C18.7339 6.425 18.1422 6.25 17.5422 6.25C17.4255 6.25 17.2505 6.26667 17.0172 6.3C15.8339 6.55 14.9755 7.21667 14.4422 8.3L14.1422 8.925C14.1422 9.40833 14.1339 10.125 14.1172 11.075C14.1005 12.0083 14.0922 12.7083 14.0922 13.175H12.0922ZM26.5148 3.35V0.949999H28.4148V3.35H29.7398V5.25H28.4148V13.175H26.5148V5.25H25.2648V3.35H26.5148ZM31.9643 13.275V1.05H33.8643V3.25C33.8643 4.71667 33.8809 5.45 33.9143 5.45C33.9476 5.45 34.1476 5.34167 34.5143 5.125C35.3809 4.60833 36.3143 4.35 37.3143 4.35C38.4976 4.35 39.5393 4.68333 40.4393 5.35C41.3559 6.01667 42.0059 6.925 42.3893 8.075C42.5059 8.39167 42.5809 9.35 42.6143 10.95L42.6643 13.275H40.7643L40.7143 11.15C40.6809 9.68333 40.5976 8.79167 40.4643 8.475C40.2143 7.825 39.7893 7.3 39.1893 6.9C38.5893 6.48333 37.9559 6.275 37.2893 6.275C37.1559 6.275 36.9726 6.29167 36.7393 6.325C35.5559 6.55833 34.7059 7.21667 34.1893 8.3C34.0559 8.56667 33.9726 8.83333 33.9393 9.1C33.9226 9.35 33.9059 10 33.8893 11.05L33.8643 13.275H31.9643ZM44.891 13.175V4.1H46.791V5.35L47.066 5.175C47.8493 4.625 48.7577 4.28333 49.791 4.15L50.341 4.1V5.05C50.341 5.5 50.3243 5.775 50.291 5.875C50.2743 5.95833 50.216 6.01667 50.116 6.05C49.366 6.21667 48.7993 6.425 48.416 6.675C48.0327 6.95833 47.741 7.23333 47.541 7.5C47.2243 7.91667 47.0327 8.3 46.966 8.65C46.8993 9 46.8493 9.78333 46.816 11L46.791 13.175H44.891ZM58.0938 6.45C57.7438 6.3 57.4021 6.225 57.0688 6.225C56.4021 6.225 55.8188 6.475 55.3188 6.975C54.8188 7.45833 54.5688 8.03333 54.5688 8.7C54.5688 8.96667 54.6188 9.25 54.7188 9.55C55.1521 10.6667 55.9271 11.225 57.0438 11.225C57.7271 11.225 58.3021 11.0167 58.7688 10.6C59.2354 10.1667 59.5021 9.60833 59.5688 8.925V8.725C59.5688 7.65833 59.0771 6.9 58.0938 6.45ZM56.0938 4.35C56.5104 4.26667 56.8604 4.225 57.1438 4.225C57.7604 4.225 58.4021 4.39167 59.0687 4.725C59.8521 5.09167 60.4604 5.64167 60.8938 6.375C61.3438 7.09167 61.5688 7.86667 61.5688 8.7C61.5688 9.91667 61.1521 10.95 60.3188 11.8C59.4521 12.7333 58.3771 13.2 57.0938 13.2C55.8604 13.2 54.8021 12.7583 53.9188 11.875C53.0521 11.0083 52.6188 9.94167 52.6188 8.675C52.6188 7.625 52.9438 6.7 53.5938 5.9C54.2438 5.08333 55.0771 4.56667 56.0938 4.35Z" />
</svg>
