<svg width="58" height="58" viewBox="0 0 58 58" fill="none" xmlns="http://www.w3.org/2000/svg">
<path d="M23.5792 27.9385C23.1167 27.9385 22.7622 28.0871 22.7622 28.0871L22.6643 28.6685C22.6643 28.6685 22.9567 28.5496 23.3995 28.5496C23.6508 28.5496 23.8344 28.5775 23.8344 28.7817C23.8344 28.9058 23.8121 28.9517 23.8121 28.9517C23.8121 28.9517 23.6141 28.9356 23.5223 28.9356C22.9388 28.9356 22.3259 29.1838 22.3259 29.9353C22.3259 30.5271 22.7276 30.6622 22.9772 30.6622C23.4533 30.6622 23.6587 30.3536 23.6692 30.3527L23.6469 30.6106H24.241L24.5059 28.7528C24.5054 27.9638 23.8178 27.9385 23.5792 27.9385ZM23.2461 30.097C23.0367 30.097 22.982 29.9374 22.982 29.8421C22.982 29.6577 23.0821 29.4356 23.5765 29.4356C23.6919 29.4361 23.7042 29.4479 23.7234 29.4514C23.7365 29.565 23.6526 30.097 23.2461 30.097Z" fill="#ECEBEB"/>
<path d="M25.7245 28.5615C25.8193 28.5615 26.1852 28.5916 26.1852 28.5916L26.2704 27.9963C26.2704 27.9963 26.0335 27.9434 25.648 27.9434C25.1488 27.9434 24.6426 28.1427 24.6426 28.8242C24.6426 29.597 25.4871 29.5183 25.4871 29.8444C25.4871 30.0612 25.2511 30.0791 25.0692 30.0791C24.7541 30.0791 24.4708 29.9716 24.4699 29.976L24.3799 30.5665C24.3961 30.5709 24.5709 30.6487 25.137 30.6487C25.2887 30.6487 26.1572 30.6881 26.1572 29.7915C26.1572 28.9531 25.3534 29.1188 25.3534 28.7818C25.3534 28.6139 25.4841 28.5615 25.7245 28.5615Z" fill="#ECEBEB"/>
<path d="M27.1438 28.6375H27.5009L27.587 28.0028H27.2504L27.319 27.6094H26.6446C26.6297 27.6238 26.2463 29.8282 26.2463 30.0957C26.2463 30.4939 26.4697 30.6705 26.784 30.6675C27.0301 30.6657 27.222 30.5975 27.2897 30.5787L27.3741 30.0052C27.3278 30.0052 27.26 30.0254 27.2001 30.0254C26.9654 30.0254 26.9396 29.8999 26.9545 29.8077L27.1438 28.6375Z" fill="#ECEBEB"/>
<path d="M29.9708 24.9551H28.767C28.6052 25.1736 28.4531 25.4062 28.3154 25.6335H30.463C30.314 25.3966 30.1492 25.1701 29.9708 24.9551Z" fill="#ECEBEB"/>
<path d="M39.3636 32.5862C39.3504 32.5665 39.3395 32.5516 39.3308 32.5425C39.326 32.5381 39.3198 32.5333 39.312 32.5311C39.3308 32.5298 39.3465 32.5228 39.3579 32.511C39.3688 32.4992 39.3749 32.4852 39.3749 32.469C39.3749 32.4576 39.3714 32.4467 39.3649 32.4367C39.3583 32.4266 39.3487 32.4192 39.3369 32.4152C39.326 32.4109 39.3072 32.4087 39.2814 32.4087H39.2053V32.6294H39.2412V32.5359H39.2617C39.274 32.5359 39.284 32.5385 39.2897 32.5438C39.2989 32.5512 39.312 32.5682 39.3273 32.5949L39.3465 32.6299H39.3907L39.3636 32.5862ZM39.284 32.5066H39.2403V32.4402H39.2814C39.2984 32.4402 39.3098 32.4415 39.3164 32.4441C39.3233 32.4467 39.3277 32.4507 39.3317 32.4555C39.3351 32.4607 39.3369 32.4664 39.3369 32.4725C39.3369 32.4826 39.3334 32.4913 39.326 32.4974C39.3185 32.5031 39.3041 32.5066 39.284 32.5066Z" fill="#ECEBEB"/>
<path d="M30.8279 26.2993H27.9398C27.7553 26.6486 27.6329 26.9126 27.5984 26.9782H31.1015C31.0224 26.7447 30.9314 26.5188 30.8279 26.2993Z" fill="#ECEBEB"/>
<path d="M21.4993 27.4014L20.8345 29.3728L20.7999 27.4014H19.8155L19.2761 30.6138H19.927L20.3375 28.1921L20.3978 30.6138H20.8624L21.7293 28.1921L21.345 30.6138H22.0357L22.5677 27.4014H21.4993Z" fill="#ECEBEB"/>
<path d="M34.5151 27.9385C34.0517 27.9385 33.6977 28.0871 33.6977 28.0871L33.5993 28.6685C33.5993 28.6685 33.8922 28.5496 34.3346 28.5496C34.5859 28.5496 34.7699 28.5775 34.7699 28.7817C34.7699 28.9058 34.7468 28.9517 34.7468 28.9517C34.7468 28.9517 34.5492 28.9356 34.4565 28.9356C33.8734 28.9356 33.261 29.1838 33.261 29.9353C33.261 30.5271 33.6631 30.6622 33.9123 30.6622C34.3879 30.6622 34.5933 30.3536 34.6043 30.3527L34.582 30.6106H35.1756L35.4405 28.7528C35.4418 27.9638 34.7538 27.9385 34.5151 27.9385ZM34.1829 30.097C33.9731 30.097 33.9189 29.9374 33.9189 29.8421C33.9189 29.6577 34.019 29.4356 34.5133 29.4356C34.6283 29.4361 34.6405 29.4479 34.6602 29.4514C34.6729 29.565 34.5885 30.097 34.1829 30.097Z" fill="#ECEBEB"/>
<path d="M39.385 30.3176C39.3671 30.2843 39.3408 30.259 39.308 30.2415C39.2757 30.2236 39.2425 30.2148 39.2075 30.2148C39.1738 30.2153 39.1402 30.224 39.107 30.2415C39.0742 30.259 39.0488 30.2843 39.0305 30.3176C39.0121 30.3504 39.0029 30.3844 39.0029 30.4199C39.0029 30.4553 39.0121 30.4889 39.0305 30.5213C39.0484 30.5536 39.0737 30.5794 39.1061 30.5978C39.1389 30.6157 39.1725 30.6249 39.2075 30.6249C39.2433 30.6249 39.2774 30.6157 39.3094 30.5978C39.3417 30.5794 39.3671 30.5536 39.385 30.5213C39.4038 30.4889 39.4121 30.4553 39.4121 30.4199C39.4121 30.3836 39.4033 30.3495 39.385 30.3176ZM39.3566 30.5042C39.3417 30.5313 39.3207 30.5519 39.2932 30.568C39.2661 30.5829 39.2381 30.5908 39.2088 30.5908C39.1791 30.5908 39.1507 30.5829 39.124 30.568C39.0965 30.5527 39.0759 30.5318 39.0602 30.5042C39.0445 30.4767 39.0375 30.4487 39.0375 30.4194C39.0375 30.3901 39.0449 30.3617 39.0611 30.3342C39.0764 30.3071 39.0969 30.2861 39.1249 30.2708C39.1529 30.2555 39.1804 30.2489 39.2088 30.2489C39.2372 30.2489 39.2652 30.2559 39.2919 30.2708C39.3198 30.2861 39.3404 30.3066 39.3557 30.3342C39.371 30.3617 39.3793 30.3901 39.3793 30.4194C39.3793 30.4487 39.3719 30.4771 39.3566 30.5042Z" fill="#ECEBEB"/>
<path d="M39.2771 30.4895C39.2644 30.4689 39.253 30.4545 39.2447 30.4458C39.2395 30.441 39.2338 30.437 39.2259 30.4344C39.2447 30.4331 39.26 30.4261 39.2714 30.4143C39.2823 30.4029 39.2889 30.3881 39.2889 30.3723C39.2889 30.3614 39.2854 30.35 39.2784 30.34C39.2714 30.3304 39.2622 30.3229 39.2513 30.3186C39.2404 30.3142 39.2211 30.312 39.1953 30.312H39.1184V30.5323H39.1543V30.4388H39.1748C39.1875 30.4388 39.1975 30.4414 39.2036 30.4462C39.2128 30.4541 39.2251 30.4707 39.2412 30.4982L39.26 30.5328H39.3042L39.2771 30.4895ZM39.1984 30.4086H39.1551V30.3417H39.1953C39.2128 30.3417 39.2242 30.343 39.2312 30.3452C39.2369 30.3483 39.2421 30.3514 39.2456 30.357C39.2495 30.3627 39.2513 30.3675 39.2513 30.375C39.2513 30.3846 39.2474 30.3929 39.2408 30.399C39.2325 30.4064 39.2189 30.4086 39.1984 30.4086Z" fill="#ECEBEB"/>
<path d="M36.8073 27.9702C36.5052 27.9702 36.281 28.3824 36.281 28.3824L36.3413 28.0034H35.7127L35.2917 30.6183H35.9842C36.1813 29.501 36.2171 28.5949 36.6853 28.7605C36.7679 28.3287 36.8475 28.1612 36.9371 27.979C36.9371 27.9794 36.8951 27.9702 36.8073 27.9702Z" fill="#ECEBEB"/>
<path d="M38.547 27.4046L38.4015 28.3073C38.4015 28.3073 38.1479 27.9563 37.7502 27.9563C37.1316 27.9567 36.6167 28.702 36.6167 29.5579C36.6167 30.1109 36.8917 30.6525 37.4529 30.6525C37.8573 30.6525 38.0811 30.3705 38.0811 30.3705L38.0518 30.6114H38.7079L39.2237 27.4033L38.547 27.4046ZM37.6916 29.9968C37.4485 29.9968 37.3349 29.7931 37.3349 29.4731C37.3349 28.9499 37.5696 28.605 37.8664 28.605C38.1086 28.6054 38.2332 28.772 38.2332 29.1645C38.2332 29.5207 38.057 29.9968 37.6916 29.9968Z" fill="#ECEBEB"/>
<path d="M41.0531 21H17.6356C17.2841 21 17 21.2846 17 21.6356V36.3644C17 36.7154 17.2841 37 17.6356 37H41.0531C41.4046 37 41.6887 36.7154 41.6887 36.3644V21.6356C41.6887 21.2846 41.4046 21 41.0531 21ZM39.472 32.6183C39.4537 32.6515 39.4288 32.6769 39.3964 32.6948C39.3641 32.7127 39.33 32.7219 39.295 32.7219C39.2592 32.7219 39.2251 32.7127 39.1927 32.6948C39.1608 32.6769 39.1355 32.6515 39.1167 32.6183C39.0987 32.5864 39.0896 32.5523 39.0896 32.5169C39.0896 32.4815 39.0987 32.4478 39.1171 32.4146C39.135 32.3814 39.1612 32.3564 39.1936 32.3385C39.2264 32.3215 39.2596 32.3123 39.2946 32.3123C39.3291 32.3123 39.3623 32.3215 39.3947 32.3385C39.4275 32.3564 39.4532 32.3814 39.4712 32.4146C39.4895 32.4478 39.4983 32.4819 39.4983 32.5169C39.4983 32.5518 39.4904 32.5872 39.472 32.6183ZM39.9301 29.0002C39.931 32.4994 37.0958 35.3372 33.5962 35.3381C31.9596 35.3385 30.4673 34.7182 29.343 33.6993C28.2188 34.7165 26.7295 35.3363 25.0955 35.3363C21.5981 35.3363 18.7594 32.4981 18.7594 29.0002C18.7594 25.5164 21.5758 22.6864 25.0549 22.6637C25.0684 22.6637 25.082 22.6637 25.0955 22.6637C26.7295 22.6637 28.2192 23.2835 29.3435 24.3007C30.4673 23.2831 31.9579 22.6628 33.5932 22.6624C37.0928 22.6611 39.9301 25.4976 39.931 28.9972C39.9301 28.998 39.9301 28.9985 39.9301 29.0002Z" fill="#ECEBEB"/>
<path d="M28.6943 33.0063C28.895 33.252 29.1074 33.4863 29.3422 33.6987C29.3474 33.6939 29.3531 33.6896 29.3583 33.6852C29.3583 33.6852 29.3579 33.6852 29.3579 33.6848H29.3592C29.59 33.4745 29.8055 33.2481 30.0026 33.0063H28.6943Z" fill="#ECEBEB"/>
<path d="M29.5573 29.5284C29.5573 29.5284 29.646 29.0913 29.646 28.9133C29.646 28.4688 29.4248 27.9268 28.6843 27.9268C28.0059 27.9272 27.5037 28.6581 27.5037 29.4842C27.5037 30.4376 28.1327 30.664 28.669 30.664C29.1639 30.664 29.3815 30.553 29.3815 30.553L29.5004 29.9026C29.5004 29.9026 29.1241 30.0687 28.784 30.0687C28.0597 30.0687 28.1864 29.5284 28.1864 29.5284H29.5573ZM28.6865 28.5322C29.0673 28.5322 28.9969 28.9601 28.9969 28.9942H28.2481C28.2481 28.9501 28.3189 28.5322 28.6865 28.5322Z" fill="#ECEBEB"/>
<path d="M32.7212 28.0163C33.0643 28.0163 33.3402 28.209 33.3402 28.209L33.4503 27.4943C33.4503 27.4943 33.042 27.3291 32.6906 27.3291C31.9121 27.3291 31.1545 28.0049 31.1545 29.2739C31.1545 30.1153 31.5633 30.6709 32.3684 30.6709C32.5957 30.6709 32.9585 30.5787 32.9585 30.5787L33.0792 29.8426C33.0792 29.8426 32.7487 30.0082 32.5214 30.0082C32.0423 30.0078 31.8504 29.6424 31.8504 29.2507C31.8504 28.4538 32.2622 28.0163 32.7212 28.0163Z" fill="#ECEBEB"/>
<path d="M27.8484 31.6753C27.9581 31.9109 28.0857 32.1351 28.2226 32.3537H30.4707C30.6071 32.136 30.7299 31.9096 30.8396 31.6753H27.8484Z" fill="#ECEBEB"/>
<path d="M31.1421 27.9713C30.8401 27.9713 30.6163 28.3835 30.6163 28.3835L30.677 28.0045H30.0489L29.6279 30.6193H30.3203C30.5166 29.5025 30.5533 28.5959 31.0215 28.7616C31.1037 28.3293 31.1828 28.1618 31.2724 27.9791C31.2724 27.9791 31.2304 27.9704 31.1421 27.9713Z" fill="#ECEBEB"/>
</svg>
