<svg width="58" height="58" viewBox="0 0 58 58" fill="none" xmlns="http://www.w3.org/2000/svg">
<path d="M14.9573 24.9581C14.812 24.6666 14.5821 24.4261 14.2968 24.2456C13.9991 24.0633 13.6477 23.9356 13.246 23.8598C12.8374 23.7858 12.3653 23.7524 11.8183 23.7471L9.29321 23.7488C9.03075 23.7524 8.77357 23.9567 8.71192 24.2103L7.01294 31.6104C6.95129 31.8606 7.11599 32.0702 7.37845 32.0702H8.58773C8.85019 32.0702 9.11002 31.8667 9.16815 31.6104L9.58298 29.8137C9.63847 29.5636 9.89741 29.3548 10.1625 29.3548H10.5087C11.9874 29.3531 13.1324 29.051 13.955 28.4459C14.7821 27.8399 15.1899 27.0393 15.1899 26.0476C15.189 25.6134 15.1176 25.2488 14.9573 24.9581ZM12.3494 27.3758C11.9839 27.6435 11.4757 27.7774 10.8204 27.7774H10.5245C10.2612 27.7774 10.1 27.5695 10.1572 27.3159L10.521 25.7446C10.5721 25.4927 10.8372 25.284 11.097 25.2857L11.4933 25.2831C11.9557 25.2831 12.3089 25.3633 12.545 25.5183C12.7784 25.6715 12.8955 25.9155 12.8937 26.2387C12.9008 26.7302 12.7132 27.108 12.3494 27.3758Z" fill="#ECEBEB"/>
<path d="M49.4302 24.3264L49.3545 24.3493L49.2532 24.3634L49.129 24.344L49.0656 24.2824L49.0365 24.1855L49.0348 24.0402V23.502H49.4391V23.3356H49.0348V23H48.8349V23.3356H48.6992V23.502H48.8349V24.1282L48.9282 24.4383L49.203 24.5369L49.3184 24.5272L49.4408 24.5034V24.3264H49.4302Z" fill="#ECEBEB"/>
<path d="M51.3051 23.4207L51.0162 23.3018L50.8031 23.3449L50.5864 23.4911L50.4605 23.3511L50.2561 23.3026L50.0597 23.3458L49.8739 23.4656V23.3352H49.6775V24.511H49.873V23.6329L50.0377 23.5308L50.2015 23.4902L50.3354 23.514L50.4015 23.5818L50.4305 23.6946L50.4402 23.8399V24.5119H50.6366V23.7597L50.6331 23.6972L50.6296 23.64L50.7969 23.5334L50.9625 23.492L51.092 23.5158L51.1624 23.5836L51.1871 23.6972L51.2003 23.8408V24.5128H51.3976V23.7492L51.3051 23.4207Z" fill="#ECEBEB"/>
<path d="M20.7891 26.0157C20.3329 25.7585 19.6124 25.6299 18.6278 25.6299C18.1407 25.6299 17.6554 25.6678 17.1648 25.7435C16.8028 25.799 16.7676 25.8096 16.5448 25.858C16.085 25.9584 16.0128 26.4173 16.0128 26.4173L15.8648 27.0259C15.7812 27.4143 16.0049 27.3993 16.0982 27.3667C16.299 27.3068 16.4109 27.2452 16.8213 27.1536C17.2133 27.0646 17.6263 26.9977 17.954 27.0021C18.4375 27.0021 18.8074 27.0532 19.054 27.1571C19.2971 27.2628 19.4187 27.4442 19.4187 27.7067L19.3975 27.8776L19.2232 27.985C18.537 28.0282 18.0412 28.0916 17.4396 28.1788C16.8513 28.2607 16.3352 28.4043 15.9062 28.6007C15.4456 28.8032 15.1039 29.0754 14.8652 29.4215C14.6344 29.7694 14.519 30.1913 14.519 30.6863C14.519 31.1522 14.6864 31.5371 15.0114 31.8348C15.3381 32.1272 15.7697 32.2699 16.2858 32.2699C16.6126 32.2681 16.8654 32.2426 17.045 32.1994L17.6307 31.9977L18.1266 31.7229L18.5828 31.4217L18.589 31.4305L18.5432 31.6243L18.5406 31.6322V31.634C18.4912 31.87 18.6339 32.0638 18.8638 32.0867L18.8682 32.092H18.8893H19.8168H19.9912L20.007 32.0849C20.2484 32.0567 20.4747 31.863 20.5276 31.6322L21.4092 27.8159L21.455 27.505L21.4761 27.2135C21.4796 26.6727 21.2462 26.272 20.7891 26.0157ZM18.8391 30.3067L18.6507 30.5551L18.1751 30.8008C17.9513 30.8915 17.7391 30.9373 17.5427 30.9373C17.245 30.9373 17.0116 30.8942 16.8539 30.8061L16.6205 30.3525C16.6205 30.1068 16.6769 29.9121 16.7976 29.7624L17.3102 29.4136C17.5295 29.3396 17.7972 29.2771 18.1072 29.2339C18.3838 29.1996 18.9299 29.137 19.0012 29.1353L19.0849 29.2824C19.0681 29.366 18.9131 30.0143 18.8391 30.3067Z" fill="#ECEBEB"/>
<path d="M42.7532 26.0209C42.2944 25.7637 41.5748 25.6343 40.5928 25.6343C40.1057 25.6343 39.6195 25.6721 39.1307 25.7505C38.7678 25.8034 38.7317 25.8148 38.508 25.8624C38.0491 25.9619 37.9778 26.4226 37.9778 26.4226L37.8298 27.0303C37.747 27.4187 37.9655 27.4011 38.0676 27.3711C38.2693 27.3112 38.3777 27.2522 38.7846 27.1571C39.1747 27.069 39.5913 27.0039 39.9199 27.0056C40.4016 27.0056 40.7715 27.0576 41.0173 27.1615C41.2621 27.2672 41.3819 27.4504 41.3819 27.7102L41.3634 27.8802L41.1908 27.9903C40.4976 28.0317 40.0009 28.0951 39.4055 28.1823C38.8189 28.2642 38.301 28.4069 37.8712 28.6042C37.4124 28.8076 37.0662 29.0798 36.8302 29.4268C36.5968 29.7747 36.4832 30.1957 36.4832 30.6863C36.4832 31.1557 36.6487 31.5406 36.9781 31.8365C37.3067 32.1281 37.7338 32.2743 38.2499 32.2743C38.5749 32.2708 38.8277 32.2496 39.0083 32.2029L39.5922 32.0039L40.0925 31.7291L40.5452 31.4244L40.5531 31.434L40.5117 31.6296L40.5073 31.6331L40.5091 31.6366C40.4545 31.8727 40.598 32.0682 40.8306 32.0893L40.8323 32.0937H40.8535C41.0058 32.0937 41.5325 32.0937 41.7835 32.0937H41.9544L41.9729 32.0876C42.2116 32.0585 42.4371 31.8647 42.4873 31.6313L43.3715 27.8203L43.4182 27.5076L43.4438 27.2152C43.4446 26.6762 43.2139 26.2772 42.7532 26.0209ZM40.8077 30.312L40.6113 30.563L40.14 30.8069C39.9163 30.8968 39.7032 30.9435 39.5103 30.9435C39.2029 30.9435 38.9757 30.8994 38.8224 30.8113L38.5864 30.3595C38.5864 30.1129 38.6436 29.92 38.759 29.7677C38.8762 29.6241 39.055 29.5061 39.2769 29.4198C39.4936 29.3458 39.7613 29.2859 40.0731 29.241C40.3479 29.2066 40.8922 29.1423 40.9627 29.1414L41.0481 29.2885C41.0358 29.3722 40.8799 30.0178 40.8077 30.312Z" fill="#ECEBEB"/>
<path d="M36.9182 24.9854C36.7667 24.6921 36.5395 24.4551 36.2524 24.2702C35.9582 24.087 35.6094 23.9584 35.2016 23.8844C34.8009 23.8131 34.3226 23.7743 33.7792 23.7734L31.2506 23.7752C30.9872 23.7796 30.7344 23.9839 30.6737 24.235L28.9729 31.6386C28.9113 31.8896 29.0804 32.0974 29.3376 32.0974L30.5486 32.0957C30.8058 32.0974 31.0691 31.8914 31.1299 31.6377L31.5394 29.8401C31.5993 29.5899 31.8592 29.3794 32.1207 29.3812H32.4669C33.9474 29.3812 35.095 29.0765 35.9212 28.4731C36.7377 27.8628 37.1507 27.0639 37.1507 26.0713C37.1463 25.6389 37.0715 25.2734 36.9182 24.9854ZM34.3103 27.4065C33.9457 27.669 33.4366 27.8029 32.7848 27.8029H32.4836C32.2238 27.8055 32.0556 27.5942 32.1137 27.3423L32.4801 25.7736C32.5338 25.5226 32.7963 25.3121 33.0579 25.3148L33.4498 25.3121C33.9148 25.3148 34.2636 25.3914 34.5014 25.5464C34.7383 25.7014 34.8502 25.9445 34.8528 26.2669C34.8555 26.7583 34.6732 27.137 34.3103 27.4065Z" fill="#ECEBEB"/>
<path d="M47.2877 24.2939C47.3432 24.0411 47.1846 23.8359 46.9248 23.8394H45.8415C45.6195 23.8394 45.4196 24.0041 45.3218 24.2067L45.2619 24.3L45.2073 24.5396L43.6933 31.4218L43.644 31.6332L43.6458 31.6385C43.5956 31.8648 43.7347 32.0357 43.9496 32.0683L43.9681 32.0938H45.0928C45.313 32.0938 45.52 31.9265 45.6142 31.7204L45.6724 31.6323L47.2912 24.2948L47.2877 24.2939Z" fill="#ECEBEB"/>
<path d="M29.0065 25.7228C28.7203 25.7263 27.5568 25.7228 27.5568 25.7228C27.2961 25.7228 26.9614 25.9333 26.7958 26.1843C26.7958 26.1843 25.0643 29.1559 24.8961 29.4545L24.6952 29.4519L24.1562 26.2045C24.0963 25.9491 23.8295 25.7307 23.4974 25.7307L22.4141 25.7324C22.1534 25.7324 21.9931 25.9403 22.0521 26.194C22.0521 26.194 22.8747 30.8752 23.0394 31.977C23.1161 32.5847 23.0297 32.693 23.0297 32.693L21.9587 34.5585C21.8002 34.8121 21.8856 35.0191 22.1455 35.0191L23.3979 35.0174C23.6586 35.0174 24.0012 34.8121 24.1562 34.5576L28.9739 26.4089C28.9739 26.4097 29.4372 25.7131 29.0065 25.7228Z" fill="#ECEBEB"/>
</svg>
