<svg width="16" height="17" viewBox="0 0 16 17" xmlns="http://www.w3.org/2000/svg">
<path d="M15.8045 14.9261L11.2545 10.39C12.1359 9.30465 12.6665 7.92551 12.6665 6.42344C12.6665 2.94207 9.8252 0.109375 6.33324 0.109375C2.84128 0.109375 0 2.94204 0 6.42341C0 9.90478 2.84131 12.7375 6.33327 12.7375C7.83991 12.7375 9.22324 12.2084 10.3119 11.3298L14.8618 15.8659C14.9918 15.9955 15.1625 16.0607 15.3332 16.0607C15.5039 16.0607 15.6745 15.9955 15.8045 15.8659C16.0652 15.6061 16.0652 15.186 15.8045 14.9261ZM6.33327 11.4082C3.57596 11.4082 1.33333 9.17236 1.33333 6.42341C1.33333 3.67446 3.57596 1.43863 6.33327 1.43863C9.09059 1.43863 11.3332 3.67446 11.3332 6.42341C11.3332 9.17236 9.09056 11.4082 6.33327 11.4082Z" />
</svg>
