<svg width="15" height="14" viewBox="0 0 15 14" xmlns="http://www.w3.org/2000/svg">
<path d="M14.0725 5.13517C14.0271 4.99611 13.9079 4.89678 13.7631 4.87408L9.4494 4.26107L7.50822 0.358845C7.44295 0.228298 7.30957 0.145996 7.16483 0.145996C7.02009 0.145996 6.88671 0.228298 6.82143 0.361683L4.90579 4.27526L0.592059 4.91665C0.447322 4.93935 0.328126 5.03868 0.282719 5.17774C0.237311 5.3168 0.277043 5.47005 0.382048 5.56938L3.51234 8.60319L2.78866 12.8999C2.76312 13.0446 2.82271 13.1894 2.94191 13.2745C3.00718 13.3228 3.08665 13.3483 3.16611 13.3483C3.22855 13.3483 3.28814 13.3341 3.3449 13.3029L7.19605 11.2624L11.0585 13.2802C11.1153 13.3086 11.1749 13.3228 11.2345 13.3228C11.4445 13.3228 11.6176 13.1496 11.6176 12.9396C11.6176 12.9084 11.6148 12.88 11.6063 12.8516L10.8599 8.58048L13.9703 5.52965C14.081 5.42748 14.1179 5.27423 14.0725 5.13517ZM8.89604 7.62607C8.65969 7.62607 10.0539 8.39034 10.0766 8.51521L8.47134 4.26107L7.0593 10.1599C6.94862 10.1003 7.53046 9.74549 7.41694 9.80225L6.03493 5.48024L4.29846 8.5294C4.31833 8.40453 4.8293 8.61738 4.73849 8.5294L7.372 7.62607L5.21797 5.00178C5.34284 4.98192 4.9975 5.6829 5.05142 5.56938L7.19605 10.8448L8.85343 4.78326C8.91019 4.89678 9.01803 4.97341 9.1429 4.99327L7.10785 3.69204L8.89604 7.62607Z" />
</svg>
