<svg width="58" height="58" viewBox="0 0 58 58" fill="none" xmlns="http://www.w3.org/2000/svg">
<path d="M35.5438 27.8628V20.3516H34.1826L28.4673 27.9365L28.6149 28.6828C28.6368 28.7756 28.6873 28.8535 28.7665 28.9164C28.8459 28.9794 28.9402 29.0108 29.0494 29.0108H34.2564V32.1022H35.5437V29.0109H37.0033C37.1126 29.0109 37.1934 28.9807 37.2453 28.9207C37.2972 28.8606 37.3232 28.7869 37.3232 28.6993V27.8628H35.5438ZM34.2686 22.5574C34.2604 22.7214 34.2563 22.8746 34.2563 23.0167V27.8629H30.0497L34.3218 22.0491C34.2946 22.2239 34.2767 22.3936 34.2686 22.5574Z" fill="#2A364E"/>
<path d="M27.1798 30.855C27.0869 30.7622 26.9611 30.7157 26.8026 30.7157H22.8666C22.659 30.7157 22.4429 30.7335 22.2188 30.7689C21.9948 30.8044 21.7734 30.8524 21.5546 30.9124L24.646 27.7473C24.974 27.4138 25.2842 27.0872 25.5767 26.7674C25.8692 26.4476 26.1275 26.1169 26.3516 25.7752C26.5756 25.4334 26.7534 25.0768 26.8846 24.705C27.0158 24.3334 27.0814 23.9287 27.0814 23.4914C27.0814 22.9775 26.9912 22.5183 26.8108 22.1139C26.6304 21.7094 26.383 21.3662 26.0687 21.0848C25.7544 20.8033 25.3813 20.5887 24.9494 20.4411C24.5175 20.2935 24.053 20.2197 23.5554 20.2197C23.0525 20.2197 22.5837 20.2921 22.1491 20.4371C21.7144 20.582 21.3291 20.7937 20.9928 21.0726C20.6567 21.3514 20.3793 21.6972 20.1605 22.1099C19.9418 22.5225 19.7942 22.997 19.7177 23.5326L20.4802 23.6638C20.5185 23.6693 20.5526 23.6734 20.5827 23.6761C20.6129 23.6788 20.6415 23.6802 20.6689 23.6802C20.8109 23.6802 20.9258 23.6447 21.0133 23.5736C21.1008 23.5025 21.1664 23.3876 21.2101 23.2292C21.2648 22.9723 21.3591 22.7372 21.493 22.524C21.6268 22.3108 21.7908 22.1263 21.9849 21.9705C22.1791 21.8147 22.4017 21.6931 22.6533 21.6056C22.9049 21.5181 23.1781 21.4745 23.4733 21.4745C23.7685 21.4745 24.0447 21.5169 24.3015 21.6015C24.5584 21.6862 24.7826 21.8133 24.9739 21.9828C25.1652 22.1524 25.3157 22.3668 25.425 22.6265C25.5342 22.8862 25.5889 23.1882 25.5889 23.5326C25.5889 23.8771 25.5397 24.2009 25.4413 24.5042C25.3429 24.8076 25.2021 25.1068 25.0191 25.402C24.836 25.6972 24.6158 25.991 24.359 26.2835C24.1021 26.5761 23.8178 26.8806 23.5061 27.1979L19.7423 30.978C19.6494 31.0709 19.5824 31.1722 19.5415 31.2814C19.5005 31.3907 19.48 31.4973 19.48 31.6012V32.1014H27.3192V31.2158C27.3192 31.0682 27.2726 30.9478 27.1798 30.855Z" fill="#2A364E"/>
<path d="M47.4269 19.7114C47.2527 19.2937 46.7726 19.096 46.3544 19.2705C45.9364 19.4449 45.739 19.925 45.9134 20.343C46.8733 22.6432 47.36 25.0849 47.36 27.6C47.36 37.9995 38.8993 46.46 28.5 46.46C18.1006 46.46 9.63992 37.9995 9.63992 27.6C9.63992 17.2005 18.1006 8.73997 28.5 8.73997C30.3949 8.73997 32.2624 9.02224 34.055 9.57396L29.7299 12.071C29.3377 12.2974 29.2034 12.7988 29.4299 13.191C29.5816 13.4541 29.8573 13.6012 30.1408 13.6012C30.2799 13.6012 30.4208 13.5657 30.5499 13.4912L36.2311 10.2111C36.6233 9.98471 36.7576 9.48326 36.5312 9.09108L33.2512 3.41007C33.025 3.0179 32.5234 2.88357 32.1312 3.11001C31.739 3.33645 31.6047 3.8379 31.8311 4.23007L33.9046 7.82157C32.1506 7.3433 30.3368 7.10005 28.5 7.10005C17.1962 7.10005 8 16.2964 8 27.6001C8 38.9038 17.1961 48.1001 28.5 48.1001C39.8039 48.1001 49 38.9038 49 27.6001C49 24.867 48.4708 22.2128 47.4269 19.7114Z" fill="#2A364E"/>
</svg>
