<svg width="58" height="58" viewBox="0 0 58 58" fill="none" xmlns="http://www.w3.org/2000/svg">
<path d="M26.8109 25.1387L25.4387 33.1912H27.6333L29.0066 25.1387H26.8109Z" fill="#ECEBEB"/>
<path d="M23.5985 25.1472L21.449 30.6388L21.2198 29.8096C20.7959 28.8105 19.5925 27.3757 18.1797 26.4714L20.1451 33.1867L22.4673 33.1828L25.9234 25.1455L23.5985 25.1472Z" fill="#ECEBEB"/>
<path d="M20.3869 25.724C20.2594 25.2335 19.8897 25.0873 19.4308 25.0698H16.0282L16 25.2301C18.6479 25.8725 20.3999 27.4202 21.1269 29.2812L20.3869 25.724Z" fill="#ECEBEB"/>
<path d="M33.4545 26.6821C34.1725 26.6708 34.6929 26.8277 35.0971 26.9903L35.2952 27.0834L35.5921 25.3381C35.1574 25.175 34.4762 25 33.6261 25C31.4575 25 29.9289 26.0922 29.9171 27.6575C29.9029 28.814 31.0059 29.4598 31.839 29.8453C32.6942 30.2404 32.9809 30.4916 32.977 30.8444C32.9702 31.3834 32.2951 31.6306 31.6646 31.6306C30.7858 31.6306 30.3189 31.5093 29.5981 31.209L29.3153 31.0803L29.0066 32.8826C29.5202 33.1078 30.468 33.3014 31.4518 33.3116C33.7587 33.3116 35.2579 32.2324 35.2737 30.5599C35.2833 29.6449 34.698 28.9467 33.4297 28.3737C32.662 28.0001 32.1924 27.7517 32.1969 27.3747C32.1969 27.0399 32.5954 26.6821 33.4545 26.6821Z" fill="#ECEBEB"/>
<path d="M41.2241 25.1475H39.5285C39.0019 25.1475 38.6101 25.2908 38.3787 25.8158L35.1201 33.1955H37.4248C37.4248 33.1955 37.8007 32.2031 37.8859 31.9858C38.1383 31.9858 40.3774 31.9892 40.6964 31.9892C40.7618 32.2703 40.9639 33.1955 40.9639 33.1955H42.9999L41.2241 25.1475ZM38.5176 30.3376C38.6982 29.8753 39.3919 28.0871 39.3919 28.0871C39.3801 28.1092 39.5708 27.6215 39.6843 27.3184L39.8322 28.0126C39.8322 28.0126 40.2527 29.9352 40.3408 30.3376H38.5176Z" fill="#ECEBEB"/>
</svg>
