<?xml version="1.0" encoding="utf-8"?><svg viewBox="0 0 512 512" xmlns="http://www.w3.org/2000/svg" xmlns:xlink="http://www.w3.org/1999/xlink"><style>:root>svg{display:none}:root>svg:target{display:block}</style><svg viewBox="0 0 24 24" id="Location" xmlns="http://www.w3.org/2000/svg"><path d="M12 0C7.348 0 3.562 3.785 3.562 8.438a8.42 8.42 0 001.26 4.436l6.698 10.794a.703.703 0 00.597.332h.006a.703.703 0 00.597-.342l6.527-10.898a8.427 8.427 0 001.19-4.322C20.438 3.785 16.652 0 12 0zm6.04 12.038l-5.933 9.908-6.09-9.813A7.022 7.022 0 014.96 8.438C4.96 4.56 8.123 1.396 12 1.396c3.877 0 7.036 3.163 7.036 7.04a7.025 7.025 0 01-.995 3.601z"/><path d="M12 4.219a4.224 4.224 0 00-4.219 4.218A4.213 4.213 0 0012 12.657a4.21 4.21 0 004.219-4.22A4.224 4.224 0 0012 4.22zm0 7.04a2.824 2.824 0 01-2.822-2.822A2.832 2.832 0 0112 5.617a2.828 2.828 0 012.817 2.822A2.819 2.819 0 0112 11.258z"/></svg><svg fill="none" viewBox="0 0 58 58" id="Mastercard" xmlns="http://www.w3.org/2000/svg"><path d="M23.58 27.939c-.463 0-.818.148-.818.148l-.098.582s.293-.12.735-.12c.252 0 .435.029.435.233 0 .124-.022.17-.022.17s-.198-.016-.29-.016c-.583 0-1.196.248-1.196 1 0 .591.402.726.651.726.476 0 .682-.308.692-.31l-.022.259h.594l.265-1.858c0-.79-.688-.814-.927-.814zm-.334 2.158c-.21 0-.264-.16-.264-.255 0-.184.1-.406.595-.406.115 0 .127.012.146.015.014.114-.07.646-.477.646zM25.724 28.561c.095 0 .461.03.461.03l.085-.595s-.236-.053-.622-.053c-.5 0-1.005.2-1.005.881 0 .773.844.694.844 1.02 0 .217-.236.235-.418.235-.315 0-.598-.107-.6-.103l-.09.59c.017.005.192.083.758.083.152 0 1.02.04 1.02-.858 0-.838-.804-.672-.804-1.01 0-.167.131-.22.371-.22zM27.144 28.637h.357l.086-.634h-.337l.069-.394h-.674c-.015.015-.399 2.22-.399 2.487 0 .398.224.575.538.572.246-.002.438-.07.506-.09l.084-.573c-.046 0-.114.02-.174.02-.235 0-.26-.125-.245-.217l.189-1.17zM29.97 24.955h-1.203a8.882 8.882 0 00-.452.679h2.148a6.395 6.395 0 00-.492-.679zM39.364 32.586a.352.352 0 00-.033-.044.047.047 0 00-.019-.01.069.069 0 00.046-.021.059.059 0 00.007-.074.053.053 0 00-.028-.022.168.168 0 00-.056-.006h-.076v.22h.036v-.093h.02c.013 0 .023.002.029.008.009.007.022.024.037.05l.02.036h.044l-.027-.044zm-.08-.08h-.044v-.066h.041c.017 0 .029.002.035.004a.035.035 0 01.016.011.03.03 0 01.005.017.03.03 0 01-.011.025c-.008.006-.022.01-.042.01zM30.828 26.3H27.94c-.185.349-.307.613-.342.678h3.504c-.08-.233-.17-.46-.274-.679zM21.5 27.401l-.666 1.972L20.8 27.4h-.985l-.539 3.213h.651l.41-2.422.06 2.422h.465l.867-2.422-.384 2.422h.69l.533-3.213h-1.069zM34.515 27.939c-.463 0-.817.148-.817.148l-.099.582s.293-.12.736-.12c.25 0 .435.029.435.233 0 .124-.023.17-.023.17s-.198-.016-.29-.016c-.584 0-1.196.248-1.196 1 0 .591.402.726.651.726.476 0 .681-.308.692-.31l-.022.259h.594l.264-1.858c.002-.79-.686-.814-.925-.814zm-.332 2.158c-.21 0-.264-.16-.264-.255 0-.184.1-.406.594-.406.115 0 .128.012.147.015.013.114-.071.646-.477.646zM39.385 30.318a.184.184 0 00-.077-.077.204.204 0 00-.277.28.196.196 0 00.075.077.206.206 0 00.279-.076.202.202 0 000-.204zm-.028.186a.173.173 0 01-.148.087.172.172 0 01-.171-.172c0-.029.007-.057.023-.085a.17.17 0 01.295.17z" fill="#ECEBEB"/><path d="M39.277 30.49a.27.27 0 00-.032-.044.05.05 0 00-.02-.012.068.068 0 00.046-.02.06.06 0 00.018-.042.057.057 0 00-.01-.032.062.062 0 00-.028-.021.168.168 0 00-.056-.007h-.077v.22h.036v-.093h.02c.014 0 .023.002.03.007.009.008.021.025.037.052l.019.035h.044l-.027-.044zm-.079-.081h-.043v-.067h.04a.13.13 0 01.036.003c.006.003.011.006.015.012.003.006.005.01.005.018 0 .01-.004.018-.01.024-.008.007-.022.01-.043.01zM36.807 27.97c-.302 0-.526.412-.526.412l.06-.379h-.628l-.421 2.615h.692c.197-1.117.233-2.023.701-1.857.083-.432.162-.6.252-.782 0 0-.042-.009-.13-.009zM38.547 27.405l-.145.902s-.254-.35-.652-.35c-.618 0-1.133.745-1.133 1.6 0 .554.275 1.096.836 1.096.404 0 .628-.282.628-.282l-.03.24h.657l.516-3.208-.677.002zm-.855 2.592c-.243 0-.357-.204-.357-.524 0-.523.235-.868.531-.868.243 0 .367.167.367.56 0 .356-.176.832-.541.832z" fill="#ECEBEB"/><path d="M41.053 21H17.636a.635.635 0 00-.636.636v14.728c0 .351.284.636.636.636h23.417a.635.635 0 00.636-.636V21.636a.635.635 0 00-.636-.636zm-1.581 11.618a.19.19 0 01-.076.077.207.207 0 01-.203 0 .204.204 0 01.202-.356.186.186 0 01.076.076.209.209 0 01.001.203zM39.93 29a6.336 6.336 0 01-10.587 4.7 6.31 6.31 0 01-4.247 1.636A6.338 6.338 0 0118.759 29a6.34 6.34 0 016.296-6.336h.04a6.31 6.31 0 014.248 1.637 6.336 6.336 0 0110.587 4.697V29z" fill="#ECEBEB"/><path d="M28.694 33.006c.201.246.413.48.648.693l.016-.014h.001c.231-.21.446-.437.644-.679h-1.309zM29.557 29.528s.089-.437.089-.615c0-.444-.221-.986-.962-.986-.678 0-1.18.731-1.18 1.557 0 .954.629 1.18 1.165 1.18.495 0 .712-.111.712-.111l.12-.65s-.377.166-.717.166c-.724 0-.598-.54-.598-.54h1.371zm-.87-.996c.38 0 .31.428.31.462h-.749c0-.044.07-.462.438-.462zM32.721 28.016c.343 0 .62.193.62.193l.11-.715s-.409-.165-.76-.165c-.779 0-1.537.676-1.537 1.945 0 .841.41 1.397 1.214 1.397.228 0 .59-.092.59-.092l.121-.736s-.33.165-.558.165c-.479 0-.67-.366-.67-.757 0-.797.411-1.235.87-1.235zM27.848 31.675c.11.236.238.46.375.679h2.248c.136-.218.259-.444.369-.679h-2.992zM31.142 27.971c-.302 0-.526.413-.526.413l.061-.38h-.628l-.421 2.615h.692c.197-1.116.233-2.023.701-1.857.083-.433.162-.6.251-.783 0 0-.042-.009-.13-.008z" fill="#ECEBEB"/></svg><svg fill="none" viewBox="0 0 58 58" id="PayPal" xmlns="http://www.w3.org/2000/svg"><path d="M14.957 24.958a1.8 1.8 0 00-.66-.712 3.096 3.096 0 00-1.051-.386 8.586 8.586 0 00-1.428-.113l-2.525.002a.633.633 0 00-.581.461l-1.7 7.4c-.06.25.104.46.366.46h1.21a.62.62 0 00.58-.46l.415-1.796a.62.62 0 01.58-.46h.346c1.478 0 2.623-.303 3.446-.908.827-.606 1.235-1.407 1.235-2.398-.001-.435-.072-.8-.233-1.09zm-2.608 2.418c-.365.267-.873.401-1.529.401h-.296c-.263 0-.424-.207-.367-.461l.364-1.571a.612.612 0 01.576-.46l.396-.002c.463 0 .816.08 1.052.235.233.154.35.398.349.72.007.492-.18.87-.545 1.138zM49.43 24.326l-.075.023-.102.014-.124-.019-.063-.062-.03-.096-.001-.146v-.538h.404v-.166h-.404V23h-.2v.336h-.136v.166h.136v.626l.093.31.275.099.115-.01.123-.024v-.177h-.01zM51.305 23.42l-.289-.118-.213.043-.217.146-.125-.14-.205-.048-.196.043-.186.12v-.13h-.197v1.175h.196v-.878l.165-.102.164-.04.133.023.066.068.03.113.01.145v.672h.196v-.752l-.004-.063-.003-.057.167-.107.166-.041.129.024.07.068.025.113.013.144v.672h.198v-.764l-.093-.328zM20.79 26.016c-.457-.257-1.178-.386-2.162-.386-.487 0-.973.038-1.463.114-.362.055-.397.066-.62.114-.46.1-.532.56-.532.56l-.148.608c-.084.388.14.373.233.34.201-.06.313-.12.723-.212.392-.09.805-.156 1.133-.152.483 0 .853.051 1.1.155.243.106.365.287.365.55l-.021.17-.175.108c-.686.043-1.182.107-1.783.194a5.533 5.533 0 00-1.534.422c-.46.202-.802.474-1.04.82-.232.348-.347.77-.347 1.265 0 .466.167.851.492 1.149.327.292.759.435 1.275.435.327-.002.58-.027.759-.07l.586-.202.496-.275.456-.301.006.008-.046.194-.002.008v.002c-.05.236.093.43.323.453l.004.005h1.123l.016-.007a.625.625 0 00.52-.453l.882-3.816.046-.311.021-.291c.004-.541-.23-.942-.687-1.198zm-1.95 4.29l-.19.25-.475.245c-.224.09-.436.136-.632.136-.298 0-.531-.043-.69-.13l-.233-.454c0-.246.057-.44.178-.59l.512-.35c.22-.073.487-.136.797-.18.277-.033.823-.096.894-.098l.084.147c-.017.084-.172.732-.246 1.025zM42.753 26.02c-.459-.256-1.178-.386-2.16-.386-.487 0-.974.038-1.462.116-.363.053-.4.065-.623.112-.459.1-.53.56-.53.56l-.148.608c-.083.389.136.371.238.341.201-.06.31-.119.717-.214.39-.088.806-.153 1.135-.151.482 0 .852.052 1.097.155a.554.554 0 01.365.55l-.019.17-.172.11c-.693.04-1.19.104-1.785.191a5.533 5.533 0 00-1.535.422c-.459.204-.805.476-1.04.823-.234.348-.348.769-.348 1.26 0 .469.166.854.495 1.15.329.291.756.437 1.272.437.325-.003.578-.024.758-.071l.584-.2.5-.274.453-.305.008.01-.041.196-.005.003.002.004c-.054.236.089.431.322.452l.001.005h1.122l.019-.006a.62.62 0 00.514-.457l.884-3.81.047-.313.026-.293c0-.539-.23-.938-.69-1.194zm-1.945 4.292l-.197.251-.471.244c-.224.09-.437.137-.63.137-.307 0-.534-.045-.688-.133l-.236-.451c0-.247.058-.44.173-.592a1.24 1.24 0 01.518-.348 4.49 4.49 0 01.796-.179c.275-.034.82-.099.89-.1l.085.148c-.012.083-.168.729-.24 1.023zM36.918 24.985a1.87 1.87 0 00-.666-.715 2.969 2.969 0 00-1.05-.386 8.32 8.32 0 00-1.423-.11l-2.528.001a.628.628 0 00-.577.46l-1.701 7.404c-.062.25.107.458.365.458l1.21-.001a.627.627 0 00.582-.458l.41-1.798c.06-.25.32-.46.58-.459h.347c1.48 0 2.628-.305 3.454-.908.817-.61 1.23-1.41 1.23-2.402-.005-.432-.08-.798-.233-1.086zm-2.608 2.422c-.364.262-.873.396-1.525.396h-.301a.362.362 0 01-.37-.46l.366-1.57a.615.615 0 01.578-.458l.392-.003c.465.003.814.08 1.051.234.237.155.35.399.352.72.002.492-.18.871-.543 1.14zM47.288 24.294c.055-.253-.103-.458-.363-.455h-1.083c-.222 0-.422.165-.52.368l-.06.093-.055.24-1.514 6.882-.049.211.002.006c-.05.226.089.397.304.43l.018.025h1.125c.22 0 .427-.168.521-.374l.058-.088 1.62-7.337-.004-.001zM29.006 25.723c-.286.003-1.45 0-1.45 0-.26 0-.595.21-.76.461 0 0-1.732 2.972-1.9 3.27l-.2-.002-.54-3.248c-.06-.255-.326-.473-.659-.473l-1.083.001c-.26 0-.42.208-.362.462 0 0 .823 4.681.987 5.783.077.608-.01.716-.01.716l-1.07 1.866c-.159.253-.073.46.186.46l1.253-.002c.26 0 .603-.205.758-.46l4.818-8.148s.463-.696.032-.686z" fill="#ECEBEB"/></svg><svg fill="none" viewBox="0 0 58 58" id="Visa" xmlns="http://www.w3.org/2000/svg"><path d="M26.81 25.139L25.44 33.19h2.194l1.374-8.052H26.81zM23.599 25.147l-2.15 5.492-.23-.83c-.423-.998-1.627-2.433-3.04-3.338l1.966 6.716 2.322-.004 3.456-8.038-2.324.002z" fill="#ECEBEB"/><path d="M20.387 25.724c-.128-.49-.497-.637-.956-.654h-3.403l-.028.16c2.648.642 4.4 2.19 5.127 4.051l-.74-3.557zM33.455 26.682a4.051 4.051 0 011.642.308l.198.093.297-1.745A5.666 5.666 0 0033.626 25c-2.168 0-3.697 1.092-3.709 2.657-.014 1.157 1.089 1.803 1.922 2.188.855.395 1.142.647 1.138 1-.007.538-.682.786-1.312.786-.88 0-1.346-.122-2.067-.422l-.283-.129-.308 1.803c.513.225 1.461.418 2.445.429 2.307 0 3.806-1.08 3.822-2.752.01-.915-.576-1.613-1.844-2.186-.768-.374-1.238-.622-1.233-1 0-.334.398-.692 1.258-.692zM41.224 25.148H39.53c-.527 0-.919.143-1.15.668l-3.259 7.38h2.305s.376-.993.46-1.21l2.811.003c.066.281.268 1.207.268 1.207H43l-1.776-8.048zm-2.706 5.19l.874-2.25c-.012.021.179-.466.292-.77l.148.695.509 2.325h-1.823z" fill="#ECEBEB"/></svg><svg fill="none" viewBox="0 0 17 30" id="arrowleftrev" xmlns="http://www.w3.org/2000/svg"><path d="M.438 16.07L13.93 29.558a1.52 1.52 0 002.145 0c.592-.59.592-1.55 0-2.14L3.654 15.001 16.071 2.584c.592-.59.592-1.55 0-2.141a1.52 1.52 0 00-2.144 0L.437 13.929a1.528 1.528 0 00.001 2.142z" fill="#2A364E"/></svg><svg fill="none" viewBox="0 0 17 30" id="arrowrightrev" xmlns="http://www.w3.org/2000/svg"><path d="M16.561 16.07L3.071 29.558a1.52 1.52 0 01-2.145 0 1.511 1.511 0 010-2.14l12.42-12.416L.929 2.584a1.513 1.513 0 010-2.141 1.52 1.52 0 012.144 0l13.491 13.486a1.528 1.528 0 01-.002 2.142z" fill="#2A364E"/></svg><svg fill="none" viewBox="0 0 20 17" id="burger" xmlns="http://www.w3.org/2000/svg"><path fill="#2A364E" d="M0 0h20v2.5H0zM0 7h20v2.5H0zM0 14h20v2.5H0z"/></svg><svg viewBox="0 0 24 25" id="cart-icon" xmlns="http://www.w3.org/2000/svg"><path d="M7.766 14.742h11.158a.617.617 0 00.591-.453l2.461-8.75a.633.633 0 00-.1-.548.612.612 0 00-.491-.249H6.347l-.44-2.01a.618.618 0 00-.6-.49H1.615A.62.62 0 001 2.867a.62.62 0 00.615.625h3.198l2.221 10.155a1.879 1.879 0 00-1.112 1.72c0 1.034.828 1.875 1.846 1.875h11.156a.62.62 0 00.615-.625.62.62 0 00-.615-.625H7.768a.62.62 0 01-.616-.625.62.62 0 01.614-.625zm12.803-8.75l-2.11 7.5H8.262l-1.64-7.5h13.948zM7 19.242c0 1.103.897 2 2 2s2-.897 2-2-.897-2-2-2-2 .897-2 2zm2-.666a.668.668 0 11-.002 1.335A.668.668 0 019 18.576zM16 19.242c0 1.103.897 2 2 2s2-.897 2-2-.897-2-2-2-2 .897-2 2zm2-.666a.668.668 0 010 1.333.668.668 0 010-1.333z"/></svg><svg fill="none" viewBox="0 0 20 20" id="close" xmlns="http://www.w3.org/2000/svg"><path fill="#2A364E" d="M1.768 0l17.678 17.678-1.768 1.768L0 1.768z"/><path fill="#2A364E" d="M19.445 1.768L1.767 19.445 0 17.677 17.677 0z"/></svg><svg fill="none" viewBox="0 0 58 58" id="delivery-icon" xmlns="http://www.w3.org/2000/svg"><path d="M50.611 16.357L29.3 6.068a.688.688 0 00-.598 0L7.39 16.358a.688.688 0 00-.389.618v24.987c0 .264.151.505.389.62L28.7 52.87a.688.688 0 00.598 0l21.312-10.288a.688.688 0 00.389-.62V16.976a.688.688 0 00-.389-.619zM29 7.451l19.73 9.525-5.719 2.762a.687.687 0 00-.116-.074l-19.597-9.46L29 7.45zm-7.255 3.53l19.702 9.512-4.035 1.948-19.694-9.508 4.027-1.952zm20.163 10.816v7.201l-3.769 1.82v-7.201l3.77-1.82zm7.717 19.735l-19.937 9.625v-23.46l4.755-2.296a.688.688 0 10-.598-1.239L29 26.502l-1.907-.92a.687.687 0 10-.598 1.238l1.817.877v23.46L8.375 41.532v-23.46L23.557 25.4a.684.684 0 00.918-.32.688.688 0 00-.32-.918L9.269 16.976l6.83-3.297 20.655 9.971.01.012v8.251a.688.688 0 00.986.62l5.145-2.484a.688.688 0 00.388-.62v-8.296l6.342-3.061v23.46z" fill="#2A364E"/><path d="M14.049 38.866l-3.128-1.51a.687.687 0 10-.598 1.238l3.128 1.51a.688.688 0 00.598-1.238zM16.928 36.991l-6.002-2.897a.688.688 0 10-.598 1.238l6.002 2.898a.687.687 0 10.598-1.239z" fill="#2A364E"/></svg><svg fill="none" viewBox="0 0 8 8" id="droparr" xmlns="http://www.w3.org/2000/svg"><g clip-path="url(#kclip0)"><path d="M4.22 6.07l3.69-3.701a.31.31 0 00-.44-.438L4 5.411.53 1.931a.31.31 0 10-.44.438l3.69 3.7a.31.31 0 00.44 0z" fill="#2A364E"/></g><defs><clipPath id="kclip0"><path fill="#fff" transform="rotate(90 4 4)" d="M0 0h8v8H0z"/></clipPath></defs></svg><svg viewBox="0 0 15 15" id="facebook" xmlns="http://www.w3.org/2000/svg"><path d="M13.125 0H1.875C.841 0 0 .84 0 1.875v11.25C0 14.159.84 15 1.875 15H7.5V9.844H5.625V7.5H7.5V5.625a2.812 2.812 0 012.813-2.813h1.874v2.344h-.937c-.518 0-.938-.048-.938.469V7.5h2.344l-.937 2.344h-1.406V15h2.812C14.159 15 15 14.16 15 13.125V1.875C15 .841 14.16 0 13.125 0z"/></svg><svg viewBox="0 0 21 21" id="filter" xmlns="http://www.w3.org/2000/svg"><path d="M19.333 1.75H2.541a.791.791 0 00-.703.418.764.764 0 00.063.812l6.151 8.455.007.008c.223.295.344.651.345 1.018v6.893c-.001.204.08.4.228.545a.796.796 0 00.557.226c.107 0 .212-.02.31-.06l3.457-1.287a.732.732 0 00.516-.72V12.46c0-.367.121-.723.344-1.018l.007-.008 6.151-8.455a.764.764 0 00.063-.812.791.791 0 00-.704-.418zm-6.287 9.14a2.612 2.612 0 00-.53 1.57v5.485L9.36 19.117v-6.657a2.611 2.611 0 00-.53-1.57L2.856 2.683h16.161l-5.972 8.208z"/></svg><svg viewBox="0 0 512.002 512.002" id="filterarr" xmlns="http://www.w3.org/2000/svg"><path d="M388.425 241.951L151.609 5.79c-7.759-7.733-20.321-7.72-28.067.04-7.74 7.759-7.72 20.328.04 28.067l222.72 222.105-222.728 222.104c-7.759 7.74-7.779 20.301-.04 28.061a19.8 19.8 0 0014.057 5.835 19.79 19.79 0 0014.017-5.795l236.817-236.155c3.737-3.718 5.834-8.778 5.834-14.05s-2.103-10.326-5.834-14.051z"/></svg><svg viewBox="0 0 19 18" id="heart-icon" xmlns="http://www.w3.org/2000/svg"><path d="M17.446 1.902a5.205 5.205 0 00-3.802-1.66 5.21 5.21 0 00-3.807 1.66l-.336.354-.335-.355a5.195 5.195 0 00-7.612 0 5.827 5.827 0 000 7.923l7.454 7.862a.679.679 0 00.986 0l7.452-7.862a5.826 5.826 0 000-7.922zm-.982 6.987h-.001l-6.962 7.343L2.54 8.889a4.452 4.452 0 010-6.053 3.838 3.838 0 015.642 0l.827.873a.7.7 0 00.986 0l.828-.873a3.838 3.838 0 015.642 0c1.596 1.71 1.608 4.354 0 6.053z"/></svg><svg viewBox="0 0 15 15" id="inst" xmlns="http://www.w3.org/2000/svg"><path d="M7.648 15h-.15a52.125 52.125 0 01-3.318-.092c-.969-.058-1.853-.393-2.557-.967-.68-.555-1.144-1.304-1.38-2.227C.038 10.91.027 10.12.017 9.358.009 8.81.002 8.16 0 7.5.002 6.84.01 6.19.017 5.642c.01-.763.021-1.552.226-2.356.236-.923.7-1.672 1.38-2.227C2.327.485 3.21.15 4.18.092A52.264 52.264 0 017.5 0a52.476 52.476 0 013.32.092c.968.058 1.852.393 2.556.967.68.555 1.144 1.304 1.38 2.227.205.804.216 1.593.226 2.356.008.548.015 1.197.017 1.857V7.5c-.002.66-.01 1.31-.017 1.857-.01.763-.021 1.552-.226 2.356-.236.923-.7 1.672-1.38 2.226-.704.575-1.588.91-2.557.968A51.844 51.844 0 017.648 15zm-.15-1.172a51.12 51.12 0 003.251-.09c.732-.044 1.368-.281 1.888-.706.48-.392.812-.933.984-1.608.17-.67.18-1.387.19-2.082.008-.544.015-1.189.017-1.842-.002-.654-.01-1.298-.017-1.842-.01-.695-.02-1.413-.19-2.082-.172-.675-.503-1.216-.984-1.608-.52-.425-1.155-.662-1.888-.707a51.207 51.207 0 00-3.248-.089 51.07 51.07 0 00-3.25.09c-.732.044-1.368.281-1.888.706-.48.392-.812.933-.984 1.608-.17.669-.18 1.387-.19 2.082a165.22 165.22 0 00-.017 1.843c.002.652.01 1.296.017 1.84.01.696.02 1.414.19 2.083.172.675.503 1.216.984 1.608.52.424 1.156.662 1.888.707 1.032.063 2.094.092 3.248.089zm-.027-2.666A3.666 3.666 0 013.808 7.5a3.666 3.666 0 013.663-3.662A3.666 3.666 0 0111.133 7.5a3.666 3.666 0 01-3.662 3.662zm0-6.152A2.493 2.493 0 004.98 7.5a2.493 2.493 0 002.49 2.49A2.493 2.493 0 009.96 7.5a2.493 2.493 0 00-2.49-2.49zm4.072-2.344a.879.879 0 100 1.758.879.879 0 000-1.758z"/></svg><svg viewBox="0 0 62 14" id="logo" xmlns="http://www.w3.org/2000/svg"><path d="M6.375 6.475c-.25-.117-.558-.175-.925-.175-.4 0-.767.075-1.1.225a2.549 2.549 0 00-1.1.95c-.25.417-.375.858-.375 1.325 0 .683.267 1.292.8 1.825.183.183.45.358.8.525.35.15.642.225.875.225.617 0 1.192-.25 1.725-.75.55-.517.825-1.133.825-1.85 0-.483-.133-.933-.4-1.35a2.524 2.524 0 00-1.125-.95zm-1.7-2.1a5.47 5.47 0 01.65-.05 4.63 4.63 0 012.1.475c.333.183.517.275.55.275.033 0 .05-.133.05-.4V4.3h1.9v8.975h-1.9V12.5l-.55.275c-.667.333-1.367.5-2.1.5-.817 0-1.533-.175-2.15-.525a4.49 4.49 0 01-1.7-1.65A4.457 4.457 0 01.9 8.825c0-.317.017-.55.05-.7A4.497 4.497 0 012.225 5.65a4.482 4.482 0 012.45-1.275zm7.417 8.8V4.2h2v.625c0 .417.042.625.125.625.034 0 .075-.033.125-.1.067-.1.333-.25.8-.45a7.366 7.366 0 011.175-.45c.334-.083.759-.125 1.275-.125.534 0 .942.042 1.225.125a5.37 5.37 0 012.1 1.025c.633.5 1.108 1.075 1.425 1.725.284.567.459 1.067.525 1.5.067.433.1 1.233.1 2.4v2.075h-1.9v-1.75c0-1-.033-1.708-.1-2.125a3.554 3.554 0 00-.35-1.175c-.283-.55-.716-1-1.3-1.35-.583-.35-1.175-.525-1.775-.525-.117 0-.292.017-.525.05-1.183.25-2.041.917-2.575 2l-.3.625c0 .483-.008 1.2-.025 2.15a128.26 128.26 0 00-.025 2.1h-2zM26.515 3.35V.95h1.9v2.4h1.325v1.9h-1.325v7.925h-1.9V5.25h-1.25v-1.9h1.25zm5.45 9.925V1.05h1.9v2.2c0 1.467.016 2.2.05 2.2.033 0 .233-.108.6-.325a5.373 5.373 0 012.8-.775c1.183 0 2.224.333 3.124 1 .917.667 1.567 1.575 1.95 2.725.117.317.192 1.275.225 2.875l.05 2.325h-1.9l-.05-2.125c-.033-1.467-.116-2.358-.25-2.675A3.268 3.268 0 0039.19 6.9c-.6-.417-1.233-.625-1.9-.625-.133 0-.316.017-.55.05-1.183.233-2.033.892-2.55 1.975a2.467 2.467 0 00-.25.8c-.016.25-.033.9-.05 1.95l-.025 2.225h-1.9zm12.926-.1V4.1h1.9v1.25l.275-.175c.783-.55 1.692-.892 2.725-1.025l.55-.05v.95c0 .45-.017.725-.05.825-.017.083-.075.142-.175.175-.75.167-1.317.375-1.7.625-.383.283-.675.558-.875.825-.317.417-.508.8-.575 1.15-.067.35-.117 1.133-.15 2.35l-.025 2.175h-1.9zM58.094 6.45a2.592 2.592 0 00-1.025-.225c-.667 0-1.25.25-1.75.75-.5.483-.75 1.058-.75 1.725 0 .267.05.55.15.85.433 1.117 1.208 1.675 2.325 1.675.683 0 1.258-.208 1.725-.625.466-.433.733-.992.8-1.675v-.2c0-1.067-.492-1.825-1.475-2.275zm-2-2.1a5.52 5.52 0 011.05-.125c.616 0 1.258.167 1.925.5a4.077 4.077 0 011.825 1.65c.45.717.675 1.492.675 2.325 0 1.217-.417 2.25-1.25 3.1-.867.933-1.942 1.4-3.225 1.4-1.234 0-2.292-.442-3.175-1.325-.867-.867-1.3-1.933-1.3-3.2 0-1.05.325-1.975.975-2.775a4.234 4.234 0 012.5-1.55z"/></svg><svg fill="none" viewBox="0 0 58 58" id="pickup-icon" xmlns="http://www.w3.org/2000/svg"><path d="M54.535 43.81h-3.59v-1.567h3.091a9.686 9.686 0 000-7.837H21.162c-1.59 0-9.814.62-12.218 1.553l-.415.16c-1.475.571-5.394 2.086-5.394 2.99v2.35a.784.784 0 00.784.784H6.27v1.568H3.92a2.352 2.352 0 01-2.352-2.352v-2.35c0-1.833 2.773-3.05 6.397-4.451l.412-.157c2.787-1.085 11.4-1.663 12.786-1.663h33.373a.784.784 0 01.706.435 11.278 11.278 0 010 10.104.784.784 0 01-.706.434z" fill="#2A364E"/><path d="M15.675 42.243h4.46v1.568h-4.46v-1.568z" fill="#2A364E"/><path d="M15.68 42.247h26v1.57h-26v-1.57zM15.89 34.767l-.43-1.508c1.803-.515 3.066-1.645 4.526-2.961C22.613 27.938 25.88 25 33.703 25c7.477 0 11.365 3.116 14.21 5.392 1.706 1.367 3.053 2.446 4.6 2.446v1.567c-2.097 0-3.71-1.292-5.58-2.79-2.806-2.248-6.303-5.047-13.23-5.047-7.221 0-10.115 2.6-12.669 4.897-1.538 1.381-2.99 2.687-5.143 3.302z" fill="#2A364E"/><path d="M46.243 48.514a5.487 5.487 0 115.487-5.486 5.492 5.492 0 01-5.487 5.486zm0-9.405a3.919 3.919 0 100 7.837 3.919 3.919 0 000-7.837zM10.973 48.514a5.487 5.487 0 115.486-5.486 5.493 5.493 0 01-5.486 5.486zm0-9.405a3.92 3.92 0 100 7.838 3.92 3.92 0 000-7.838zM32.135 25.796h1.568v7.826h-1.568v-7.826z" fill="#2A364E"/></svg><svg viewBox="0 0 24 24" id="pintrest" xmlns="http://www.w3.org/2000/svg"><path d="M8.036 13.295c.022-.053.236-.876.25-.932-.334-.503-.705-2.15-.42-3.488.307-1.962 2.386-2.927 4.35-2.927v-.003c2.458.001 4.298 1.369 4.3 3.724.001 1.844-1.11 4.28-3.006 4.28h-.001c-.677 0-1.534-.306-1.759-.608-.26-.347-.323-.776-.186-1.234.336-1.072.764-2.356.814-3.212.046-.808-.527-1.334-1.27-1.334-.56 0-1.286.325-1.649 1.238-.299.76-.292 1.553.02 2.428.122.342-.54 2.572-.752 3.298-.526 1.804-1.247 4.087-1.093 5.358l.149 1.223.747-.98c1.034-1.354 2.103-4.855 2.388-5.707.843 1.09 2.597 1.122 2.801 1.122 2.512 0 5.36-2.494 5.28-5.966C18.926 6.531 16.698 4 12.695 4v.004c-3.808 0-6.03 2.032-6.574 4.6-.498 2.382.61 4.194 1.914 4.691z"/></svg><svg viewBox="0 0 16 17" id="search-icon" xmlns="http://www.w3.org/2000/svg"><path d="M15.805 14.926l-4.55-4.536a6.271 6.271 0 001.411-3.967c0-3.48-2.84-6.314-6.333-6.314C2.841.11 0 2.942 0 6.423c0 3.482 2.841 6.315 6.333 6.315 1.507 0 2.89-.53 3.979-1.408l4.55 4.536a.666.666 0 00.943-.94zm-9.472-3.518c-2.757 0-5-2.236-5-4.985s2.243-4.984 5-4.984c2.758 0 5 2.235 5 4.984 0 2.75-2.242 4.985-5 4.985z"/></svg><svg viewBox="0 0 15 14" id="star" xmlns="http://www.w3.org/2000/svg"><path d="M14.072 5.135a.386.386 0 00-.309-.26L9.45 4.26 7.51.36a.382.382 0 00-.687.003L4.905 4.275l-4.314.642a.386.386 0 00-.31.26.379.379 0 00.1.392l3.13 3.034L2.79 12.9a.378.378 0 00.153.374.379.379 0 00.403.029l3.851-2.04 3.863 2.017a.385.385 0 00.548-.429l-.747-4.27 3.11-3.051a.375.375 0 00.102-.395zM8.896 7.626c-.236 0 1.158.764 1.18.89L8.472 4.26 7.06 10.16c-.11-.06.471-.415.358-.358L6.035 5.48 4.298 8.53c.02-.125.531.087.44 0l2.634-.904-2.154-2.624c.125-.02-.22.68-.167.567l2.145 5.276 1.657-6.062a.39.39 0 00.29.21L7.108 3.692l1.788 3.934z"/></svg><svg fill="none" viewBox="0 0 58 58" id="time-icon" xmlns="http://www.w3.org/2000/svg"><path d="M35.544 27.863v-7.511h-1.361l-5.716 7.584.148.747a.441.441 0 00.434.328h5.207v3.091h1.288v-3.091h1.46c.109 0 .19-.03.241-.09a.327.327 0 00.078-.222v-.836h-1.78zm-1.275-5.306a9.235 9.235 0 00-.013.46v4.846H30.05l4.272-5.814a4.879 4.879 0 00-.053.508zM27.18 30.855a.51.51 0 00-.377-.14h-3.936c-.208 0-.424.018-.648.054a6.15 6.15 0 00-.664.143l3.091-3.165c.328-.333.638-.66.93-.98.293-.32.552-.65.776-.992.224-.342.401-.698.533-1.07.13-.372.196-.776.196-1.214 0-.514-.09-.973-.27-1.377a3.004 3.004 0 00-.742-1.03 3.212 3.212 0 00-1.12-.643 4.282 4.282 0 00-1.394-.221c-.503 0-.971.072-1.406.217a3.395 3.395 0 00-1.989 1.673 4.32 4.32 0 00-.442 1.423l.762.13a1.963 1.963 0 00.189.017.53.53 0 00.344-.106c.088-.072.153-.186.197-.345a2.16 2.16 0 01.283-.705c.134-.213.298-.398.492-.553.194-.156.417-.278.668-.365a2.48 2.48 0 01.82-.132c.296 0 .572.043.829.128a1.754 1.754 0 011.123 1.025c.11.26.164.561.164.906 0 .344-.05.668-.148.971-.098.304-.239.603-.422.898a6.676 6.676 0 01-.66.881 22.42 22.42 0 01-.853.915l-3.764 3.78a.852.852 0 00-.2.303.907.907 0 00-.062.32v.5h7.84v-.885a.489.489 0 00-.14-.361z" fill="#2A364E"/><path d="M47.427 19.711a.82.82 0 10-1.514.632c.96 2.3 1.447 4.742 1.447 7.257 0 10.4-8.46 18.86-18.86 18.86C18.1 46.46 9.64 38 9.64 27.6c0-10.4 8.46-18.86 18.86-18.86 1.895 0 3.762.282 5.555.834l-4.325 2.497a.82.82 0 10.82 1.42l5.681-3.28a.82.82 0 00.3-1.12l-3.28-5.68a.82.82 0 10-1.42.82l2.074 3.59a20.523 20.523 0 00-5.405-.72C17.196 7.1 8 16.295 8 27.6c0 11.303 9.196 20.5 20.5 20.5S49 38.903 49 27.6c0-2.734-.53-5.388-1.573-7.89z" fill="#2A364E"/></svg><svg fill="none" viewBox="0 0 212 204" id="vector" xmlns="http://www.w3.org/2000/svg"><path d="M49.197 94.187v17.065H91.83v91.829H0v-91.829h.002V94.187c0-34.653 9.97-60.384 29.636-76.484C43.24 6.566 60.46.92 80.818.92v49.192c-11.05 0-31.621 0-31.621 44.075zm151.792-44.075V.92c-20.357 0-37.576 5.646-51.18 16.783-19.665 16.1-29.637 41.832-29.637 76.484V203.08H212v-91.829h-42.634V94.187c.001-44.075 20.572-44.075 31.623-44.075z" fill="#ECEBEB"/></svg></svg>